<svg width="24" height="24" viewBox="0 0 24 24" fill="none" xmlns="http://www.w3.org/2000/svg">
<mask id="mask0_2036_2977" style="mask-type:alpha" maskUnits="userSpaceOnUse" x="0" y="0" width="24" height="24">
<rect width="24" height="24" fill="#D9D9D9"/>
</mask>
<g mask="url(#mask0_2036_2977)">
<path d="M5 22C4.45 22 3.97917 21.8042 3.5875 21.4125C3.19583 21.0208 3 20.55 3 20V6C3 5.45 3.19583 4.97917 3.5875 4.5875C3.97917 4.19583 4.45 4 5 4H6V3C6 2.71667 6.09583 2.47917 6.2875 2.2875C6.47917 2.09583 6.71667 2 7 2C7.28333 2 7.52083 2.09583 7.7125 2.2875C7.90417 2.47917 8 2.71667 8 3V4H16V3C16 2.71667 16.0958 2.47917 16.2875 2.2875C16.4792 2.09583 16.7167 2 17 2C17.2833 2 17.5208 2.09583 17.7125 2.2875C17.9042 2.47917 18 2.71667 18 3V4H19C19.55 4 20.0208 4.19583 20.4125 4.5875C20.8042 4.97917 21 5.45 21 6V12.375C21 12.6583 20.9042 12.8958 20.7125 13.0875C20.5208 13.2792 20.2833 13.375 20 13.375C19.7167 13.375 19.4792 13.2792 19.2875 13.0875C19.0958 12.8958 19 12.6583 19 12.375V10H5V20H11.225C11.5083 20 11.7417 20.0958 11.925 20.2875C12.1083 20.4792 12.2 20.7167 12.2 21C12.2 21.2833 12.1042 21.5208 11.9125 21.7125C11.7208 21.9042 11.4833 22 11.2 22H5ZM5 8H19V6H5V8ZM16.525 19.675L20.075 16.125C20.275 15.925 20.5083 15.825 20.775 15.825C21.0417 15.825 21.275 15.925 21.475 16.125C21.675 16.325 21.775 16.5625 21.775 16.8375C21.775 17.1125 21.675 17.35 21.475 17.55L17.25 21.8C17.05 22 16.8125 22.1 16.5375 22.1C16.2625 22.1 16.025 22 15.825 21.8L13.7 19.675C13.5 19.475 13.4 19.2375 13.4 18.9625C13.4 18.6875 13.5 18.45 13.7 18.25C13.9 18.05 14.1375 17.95 14.4125 17.95C14.6875 17.95 14.925 18.05 15.125 18.25L16.525 19.675Z" fill="#1574D2"/>
</g>
</svg>
