<svg width="40" height="40" viewBox="0 0 40 40" fill="none" xmlns="http://www.w3.org/2000/svg">
<rect x="0.5" y="0.5" width="39" height="39" rx="19.5" fill="white"/>
<rect x="0.5" y="0.5" width="39" height="39" rx="19.5" stroke="#1574D2"/>
<g clip-path="url(#clip0_2036_2936)">
<path d="M32 20C32 13.3726 26.6274 8 20 8C13.3726 8 8 13.3726 8 20C8 25.6275 11.8746 30.3498 17.1013 31.6467V23.6672H14.6269V20H17.1013V18.4198C17.1013 14.3355 18.9498 12.4424 22.9597 12.4424C23.72 12.4424 25.0318 12.5917 25.5685 12.7405V16.0645C25.2853 16.0347 24.7933 16.0198 24.1822 16.0198C22.2147 16.0198 21.4544 16.7653 21.4544 18.703V20H25.3741L24.7006 23.6672H21.4544V31.9122C27.3963 31.1946 32.0005 26.1354 32.0005 20H32Z" fill="#0866FF"/>
<path d="M24.7001 23.6672L25.3735 20H21.4539V18.703C21.4539 16.7653 22.2142 16.0198 24.1817 16.0198C24.7927 16.0198 25.2847 16.0347 25.5679 16.0645V12.7405C25.0313 12.5912 23.7195 12.4424 22.9591 12.4424C18.9492 12.4424 17.1007 14.3355 17.1007 18.4198V20H14.6263V23.6672H17.1007V31.6467C18.0291 31.8771 19.0001 32 19.9995 32C20.4915 32 20.9767 31.9697 21.4534 31.9121V23.6672H24.6996H24.7001Z" fill="white"/>
</g>
<defs>
<clipPath id="clip0_2036_2936">
<rect width="24" height="24" fill="white" transform="translate(8 8)"/>
</clipPath>
</defs>
</svg>
