<svg width="24" height="24" viewBox="0 0 24 24" fill="none" xmlns="http://www.w3.org/2000/svg">
<path d="M21.8079 10.1448H12.213V13.9894H17.7263C17.6377 14.5336 17.4387 15.0688 17.1472 15.5569C16.8133 16.1161 16.4006 16.5418 15.9775 16.866C14.7101 17.8372 13.2325 18.0358 12.2063 18.0358C9.61409 18.0358 7.39919 16.3604 6.54176 14.0838C6.50716 14.0012 6.48418 13.9159 6.4562 13.8315C6.26673 13.2521 6.1632 12.6384 6.1632 12.0006C6.1632 11.3369 6.27531 10.7014 6.47972 10.1013C7.28599 7.73451 9.55082 5.96672 12.2082 5.96672C12.7427 5.96672 13.2574 6.03034 13.7455 6.15724C14.861 6.44725 15.6501 7.01843 16.1336 7.47023L19.0511 4.61313C17.2764 2.98597 14.9629 2 12.2033 2C9.99721 1.99995 7.96042 2.68732 6.29133 3.84899C4.93776 4.79107 3.82764 6.0524 3.07844 7.5173C2.38158 8.87555 2 10.3808 2 11.9991C2 13.6176 2.38216 15.1384 3.07902 16.4841V16.4932C3.81508 17.9218 4.89146 19.1519 6.19967 20.0897C7.34254 20.9089 9.39181 22 12.2033 22C13.8202 22 15.2531 21.7085 16.5169 21.1622C17.4285 20.7681 18.2363 20.2541 18.9676 19.5935C19.9339 18.7206 20.6906 17.6409 21.2072 16.3987C21.7237 15.1565 22 13.7518 22 12.2289C22 11.5196 21.9288 10.7993 21.8079 10.1447V10.1448Z" fill="#1574D2"/>
</svg>
