<svg width="24" height="24" viewBox="0 0 24 24" fill="none" xmlns="http://www.w3.org/2000/svg">
<mask id="mask0_2036_2920" style="mask-type:alpha" maskUnits="userSpaceOnUse" x="0" y="0" width="24" height="24">
<rect width="24" height="24" fill="#D9D9D9"/>
</mask>
<g mask="url(#mask0_2036_2920)">
<path d="M11 21V13.725C10.7 13.5417 10.4583 13.3042 10.275 13.0125C10.0917 12.7208 10 12.3833 10 12C10 11.45 10.1958 10.9792 10.5875 10.5875C10.9792 10.1958 11.45 10 12 10C12.55 10 13.0208 10.1958 13.4125 10.5875C13.8042 10.9792 14 11.45 14 12C14 12.3833 13.9083 12.725 13.725 13.025C13.5417 13.325 13.3 13.5583 13 13.725V21C13 21.2833 12.9042 21.5208 12.7125 21.7125C12.5208 21.9042 12.2833 22 12 22C11.7167 22 11.4792 21.9042 11.2875 21.7125C11.0958 21.5208 11 21.2833 11 21ZM5.825 18.525C5.625 18.725 5.38333 18.825 5.1 18.825C4.81667 18.825 4.58333 18.7167 4.4 18.5C3.65 17.6167 3.0625 16.625 2.6375 15.525C2.2125 14.425 2 13.25 2 12C2 10.6167 2.2625 9.31667 2.7875 8.1C3.3125 6.88333 4.025 5.825 4.925 4.925C5.825 4.025 6.88333 3.3125 8.1 2.7875C9.31667 2.2625 10.6167 2 12 2C13.3833 2 14.6833 2.2625 15.9 2.7875C17.1167 3.3125 18.175 4.025 19.075 4.925C19.975 5.825 20.6875 6.88333 21.2125 8.1C21.7375 9.31667 22 10.6167 22 12C22 13.25 21.7875 14.425 21.3625 15.525C20.9375 16.625 20.35 17.6167 19.6 18.5C19.4167 18.7167 19.1875 18.8292 18.9125 18.8375C18.6375 18.8458 18.4 18.75 18.2 18.55C18.0167 18.3667 17.925 18.1333 17.925 17.85C17.925 17.5667 18.0167 17.3167 18.2 17.1C18.7667 16.4 19.2083 15.6167 19.525 14.75C19.8417 13.8833 20 12.9667 20 12C20 9.76667 19.225 7.875 17.675 6.325C16.125 4.775 14.2333 4 12 4C9.76667 4 7.875 4.775 6.325 6.325C4.775 7.875 4 9.76667 4 12C4 12.9667 4.15833 13.8792 4.475 14.7375C4.79167 15.5958 5.24167 16.375 5.825 17.075C6.00833 17.2917 6.10417 17.5375 6.1125 17.8125C6.12083 18.0875 6.025 18.325 5.825 18.525ZM8.65 15.7C8.45 15.9 8.20833 16.0042 7.925 16.0125C7.64167 16.0208 7.41667 15.9083 7.25 15.675C6.86667 15.1583 6.5625 14.5917 6.3375 13.975C6.1125 13.3583 6 12.7 6 12C6 10.3333 6.58333 8.91667 7.75 7.75C8.91667 6.58333 10.3333 6 12 6C13.6667 6 15.0833 6.58333 16.25 7.75C17.4167 8.91667 18 10.3333 18 12C18 12.7 17.8875 13.3625 17.6625 13.9875C17.4375 14.6125 17.1333 15.175 16.75 15.675C16.5833 15.8917 16.3583 16.0042 16.075 16.0125C15.7917 16.0208 15.55 15.925 15.35 15.725C15.1667 15.5417 15.0708 15.3083 15.0625 15.025C15.0542 14.7417 15.1333 14.4833 15.3 14.25C15.5167 13.9167 15.6875 13.5625 15.8125 13.1875C15.9375 12.8125 16 12.4167 16 12C16 10.9 15.6083 9.95833 14.825 9.175C14.0417 8.39167 13.1 8 12 8C10.9 8 9.95833 8.39167 9.175 9.175C8.39167 9.95833 8 10.9 8 12C8 12.4333 8.0625 12.8333 8.1875 13.2C8.3125 13.5667 8.48333 13.9167 8.7 14.25C8.86667 14.4833 8.94583 14.7375 8.9375 15.0125C8.92917 15.2875 8.83333 15.5167 8.65 15.7Z" fill="#1574D2"/>
</g>
</svg>
