<svg width="40" height="40" viewBox="0 0 40 40" fill="none" xmlns="http://www.w3.org/2000/svg">
<rect x="0.5" y="0.5" width="39" height="39" rx="18.5" fill="white"/>
<rect x="0.5" y="0.5" width="39" height="39" rx="18.5" stroke="#1574D2"/>
<g clip-path="url(#clip0_2036_2940)">
<path d="M20 8C13.3728 8 8 13.3728 8 20C8 23.3141 9.34344 26.3141 11.5147 28.4853L9.22906 30.7709C8.77531 31.2247 9.09688 32 9.73813 32H20C26.6272 32 32 26.6272 32 20C32 13.3728 26.6272 8 20 8Z" fill="#FF4500"/>
<path d="M26.8024 22.3944C28.35 22.3944 29.6046 21.1398 29.6046 19.5922C29.6046 18.0446 28.35 16.79 26.8024 16.79C25.2548 16.79 24.0002 18.0446 24.0002 19.5922C24.0002 21.1398 25.2548 22.3944 26.8024 22.3944Z" fill="url(#paint0_radial_2036_2940)"/>
<path d="M13.1975 22.3944C14.7451 22.3944 15.9996 21.1398 15.9996 19.5922C15.9996 18.0446 14.7451 16.79 13.1975 16.79C11.6498 16.79 10.3953 18.0446 10.3953 19.5922C10.3953 21.1398 11.6498 22.3944 13.1975 22.3944Z" fill="url(#paint1_radial_2036_2940)"/>
<path d="M20.0065 27.9995C24.4246 27.9995 28.0062 25.3132 28.0062 21.9995C28.0062 18.6858 24.4246 15.9995 20.0065 15.9995C15.5884 15.9995 12.0068 18.6858 12.0068 21.9995C12.0068 25.3132 15.5884 27.9995 20.0065 27.9995Z" fill="url(#paint2_radial_2036_2940)"/>
<path d="M17.6413 21.4165C17.5944 22.4327 16.9194 22.8021 16.1347 22.8021C15.35 22.8021 14.75 22.2818 14.7969 21.2655C14.8438 20.2493 15.5188 19.5762 16.3034 19.5762C17.0881 19.5762 17.6881 20.4002 17.6413 21.4165Z" fill="#842123"/>
<path d="M25.2162 21.2646C25.2631 22.2808 24.664 22.8011 23.8784 22.8011C23.0928 22.8011 22.4178 22.4327 22.3718 21.4155C22.325 20.3993 22.924 19.5752 23.7096 19.5752C24.4953 19.5752 25.1703 20.2474 25.2162 21.2646Z" fill="#842123"/>
<path d="M22.3718 21.5049C22.4159 22.4565 23.0468 22.8015 23.7818 22.8015C24.5168 22.8015 25.0774 22.2849 25.0334 21.3333C24.9893 20.3818 24.3584 19.7593 23.6234 19.7593C22.8884 19.7593 22.3278 20.5533 22.3718 21.5049Z" fill="url(#paint3_radial_2036_2940)"/>
<path d="M17.6421 21.5049C17.5981 22.4565 16.9671 22.8015 16.2321 22.8015C15.4971 22.8015 14.9365 22.2849 14.9806 21.3333C15.0246 20.3818 15.6556 19.7593 16.3906 19.7593C17.1256 19.7593 17.6862 20.5533 17.6421 21.5049Z" fill="url(#paint4_radial_2036_2940)"/>
<path d="M20.0066 23.48C19.0147 23.48 18.0641 23.5278 17.1847 23.615C17.0347 23.63 16.9391 23.7828 16.9972 23.9197C17.4894 25.0737 18.651 25.8847 20.0066 25.8847C21.3622 25.8847 22.5228 25.0737 23.016 23.9197C23.0741 23.7828 22.9794 23.63 22.8285 23.615C21.9491 23.5278 20.9985 23.48 20.0066 23.48Z" fill="#BBCFDA"/>
<path d="M20.0066 23.7002C19.0175 23.7002 18.0697 23.7489 17.1931 23.838C17.0431 23.853 16.9485 24.0086 17.0066 24.1474C17.4978 25.3202 18.6556 26.1433 20.0056 26.1433C21.3556 26.1433 22.5144 25.3193 23.0056 24.1474C23.0638 24.0086 22.9691 23.853 22.8191 23.838C21.9425 23.7489 20.9947 23.7002 20.0056 23.7002H20.0066Z" fill="white"/>
<path d="M20.0066 23.5859C19.0335 23.5859 18.1007 23.6338 17.2372 23.7209C17.09 23.7359 16.9963 23.8888 17.0535 24.0256C17.5363 25.1797 18.6763 25.9906 20.0066 25.9906C21.3369 25.9906 22.476 25.1797 22.9597 24.0256C23.0169 23.8888 22.9232 23.7359 22.776 23.7209C21.9135 23.6338 20.9807 23.5859 20.0066 23.5859Z" fill="url(#paint5_radial_2036_2940)"/>
<path d="M24.3885 15.1841C25.4851 15.1841 26.3741 14.2951 26.3741 13.1985C26.3741 12.1019 25.4851 11.2129 24.3885 11.2129C23.2918 11.2129 22.4028 12.1019 22.4028 13.1985C22.4028 14.2951 23.2918 15.1841 24.3885 15.1841Z" fill="url(#paint6_radial_2036_2940)"/>
<path d="M19.9784 16.253C19.7403 16.253 19.5481 16.1536 19.5481 15.9999C19.5481 14.2205 20.9956 12.7739 22.774 12.7739C23.0122 12.7739 23.2043 12.9671 23.2043 13.2042C23.2043 13.4414 23.0112 13.6346 22.774 13.6346C21.47 13.6346 20.4087 14.6958 20.4087 15.9999C20.4087 16.1536 20.2156 16.253 19.9784 16.253Z" fill="url(#paint7_radial_2036_2940)"/>
<path d="M17.119 21.9752C17.119 22.3436 16.7271 22.5086 16.2443 22.5086C15.7615 22.5086 15.3696 22.3436 15.3696 21.9752C15.3696 21.6067 15.7615 21.3086 16.2443 21.3086C16.7271 21.3086 17.119 21.6067 17.119 21.9752Z" fill="#FF6101"/>
<path d="M24.6444 21.9752C24.6444 22.3436 24.2525 22.5086 23.7697 22.5086C23.2869 22.5086 22.895 22.3436 22.895 21.9752C22.895 21.6067 23.2869 21.3086 23.7697 21.3086C24.2525 21.3086 24.6444 21.6067 24.6444 21.9752Z" fill="#FF6101"/>
<path d="M16.8481 20.9761C17.02 20.9761 17.1594 20.8242 17.1594 20.6367C17.1594 20.4493 17.02 20.2974 16.8481 20.2974C16.6762 20.2974 16.5369 20.4493 16.5369 20.6367C16.5369 20.8242 16.6762 20.9761 16.8481 20.9761Z" fill="#FFC49C"/>
<path d="M24.2459 20.9761C24.4178 20.9761 24.5572 20.8242 24.5572 20.6367C24.5572 20.4493 24.4178 20.2974 24.2459 20.2974C24.074 20.2974 23.9347 20.4493 23.9347 20.6367C23.9347 20.8242 24.074 20.9761 24.2459 20.9761Z" fill="#FFC49C"/>
</g>
<defs>
<radialGradient id="paint0_radial_2036_2940" cx="0" cy="0" r="1" gradientUnits="userSpaceOnUse" gradientTransform="translate(26.8448 18.0836) scale(5.61577 4.89886)">
<stop stop-color="#FEFFFF"/>
<stop offset="0.4" stop-color="#FEFFFF"/>
<stop offset="0.51" stop-color="#F9FCFC"/>
<stop offset="0.62" stop-color="#EDF3F5"/>
<stop offset="0.7" stop-color="#DEE9EC"/>
<stop offset="0.72" stop-color="#D8E4E8"/>
<stop offset="0.76" stop-color="#CCD8DF"/>
<stop offset="0.8" stop-color="#C8D5DD"/>
<stop offset="0.83" stop-color="#CCD6DE"/>
<stop offset="0.85" stop-color="#D8DBE2"/>
<stop offset="0.88" stop-color="#EDE3E9"/>
<stop offset="0.9" stop-color="#FFEBEF"/>
</radialGradient>
<radialGradient id="paint1_radial_2036_2940" cx="0" cy="0" r="1" gradientUnits="userSpaceOnUse" gradientTransform="translate(13.2398 18.0836) scale(5.61577 4.89886)">
<stop stop-color="#FEFFFF"/>
<stop offset="0.4" stop-color="#FEFFFF"/>
<stop offset="0.51" stop-color="#F9FCFC"/>
<stop offset="0.62" stop-color="#EDF3F5"/>
<stop offset="0.7" stop-color="#DEE9EC"/>
<stop offset="0.72" stop-color="#D8E4E8"/>
<stop offset="0.76" stop-color="#CCD8DF"/>
<stop offset="0.8" stop-color="#C8D5DD"/>
<stop offset="0.83" stop-color="#CCD6DE"/>
<stop offset="0.85" stop-color="#D8DBE2"/>
<stop offset="0.88" stop-color="#EDE3E9"/>
<stop offset="0.9" stop-color="#FFEBEF"/>
</radialGradient>
<radialGradient id="paint2_radial_2036_2940" cx="0" cy="0" r="1" gradientUnits="userSpaceOnUse" gradientTransform="translate(20.22 17.2976) scale(16.9394 11.8936)">
<stop stop-color="#FEFFFF"/>
<stop offset="0.4" stop-color="#FEFFFF"/>
<stop offset="0.51" stop-color="#F9FCFC"/>
<stop offset="0.62" stop-color="#EDF3F5"/>
<stop offset="0.7" stop-color="#DEE9EC"/>
<stop offset="0.72" stop-color="#D8E4E8"/>
<stop offset="0.76" stop-color="#CCD8DF"/>
<stop offset="0.8" stop-color="#C8D5DD"/>
<stop offset="0.83" stop-color="#CCD6DE"/>
<stop offset="0.85" stop-color="#D8DBE2"/>
<stop offset="0.88" stop-color="#EDE3E9"/>
<stop offset="0.9" stop-color="#FFEBEF"/>
</radialGradient>
<radialGradient id="paint3_radial_2036_2940" cx="0" cy="0" r="1" gradientUnits="userSpaceOnUse" gradientTransform="translate(23.4949 22.1538) rotate(180) scale(1.41529 2.07776)">
<stop stop-color="#FF6600"/>
<stop offset="0.5" stop-color="#FF4500"/>
<stop offset="0.7" stop-color="#FC4301"/>
<stop offset="0.82" stop-color="#F43F07"/>
<stop offset="0.92" stop-color="#E53812"/>
<stop offset="1" stop-color="#D4301F"/>
</radialGradient>
<radialGradient id="paint4_radial_2036_2940" cx="0" cy="0" r="1" gradientUnits="userSpaceOnUse" gradientTransform="translate(16.4553 22.1538) scale(1.41529 2.07776)">
<stop stop-color="#FF6600"/>
<stop offset="0.5" stop-color="#FF4500"/>
<stop offset="0.7" stop-color="#FC4301"/>
<stop offset="0.82" stop-color="#F43F07"/>
<stop offset="0.92" stop-color="#E53812"/>
<stop offset="1" stop-color="#D4301F"/>
</radialGradient>
<radialGradient id="paint5_radial_2036_2940" cx="0" cy="0" r="1" gradientUnits="userSpaceOnUse" gradientTransform="translate(20.0346 26.2726) scale(4.99052 3.29162)">
<stop stop-color="#172E35"/>
<stop offset="0.29" stop-color="#0E1C21"/>
<stop offset="0.73" stop-color="#030708"/>
<stop offset="1"/>
</radialGradient>
<radialGradient id="paint6_radial_2036_2940" cx="0" cy="0" r="1" gradientUnits="userSpaceOnUse" gradientTransform="translate(24.4355 11.1975) scale(4.38069)">
<stop stop-color="#FEFFFF"/>
<stop offset="0.4" stop-color="#FEFFFF"/>
<stop offset="0.51" stop-color="#F9FCFC"/>
<stop offset="0.62" stop-color="#EDF3F5"/>
<stop offset="0.7" stop-color="#DEE9EC"/>
<stop offset="0.72" stop-color="#D8E4E8"/>
<stop offset="0.76" stop-color="#CCD8DF"/>
<stop offset="0.8" stop-color="#C8D5DD"/>
<stop offset="0.83" stop-color="#CCD6DE"/>
<stop offset="0.85" stop-color="#D8DBE2"/>
<stop offset="0.88" stop-color="#EDE3E9"/>
<stop offset="0.9" stop-color="#FFEBEF"/>
</radialGradient>
<radialGradient id="paint7_radial_2036_2940" cx="0" cy="0" r="1" gradientUnits="userSpaceOnUse" gradientTransform="translate(22.61 15.9732) scale(3.59065)">
<stop offset="0.48" stop-color="#7A9299"/>
<stop offset="0.67" stop-color="#172E35"/>
<stop offset="0.75"/>
<stop offset="0.82" stop-color="#172E35"/>
</radialGradient>
<clipPath id="clip0_2036_2940">
<rect width="24" height="24" fill="white" transform="translate(8 8)"/>
</clipPath>
</defs>
</svg>
