<svg width="24" height="24" viewBox="0 0 24 24" fill="none" xmlns="http://www.w3.org/2000/svg">
<g clip-path="url(#clip0_2032_1983)">
<path d="M12 0C5.37281 0 0 5.37281 0 12C0 15.3141 1.34344 18.3141 3.51469 20.4853L1.22906 22.7709C0.775312 23.2247 1.09688 24 1.73813 24H12C18.6272 24 24 18.6272 24 12C24 5.37281 18.6272 0 12 0Z" fill="#FF4500"/>
<path d="M18.8024 14.3944C20.35 14.3944 21.6046 13.1398 21.6046 11.5922C21.6046 10.0446 20.35 8.79004 18.8024 8.79004C17.2548 8.79004 16.0002 10.0446 16.0002 11.5922C16.0002 13.1398 17.2548 14.3944 18.8024 14.3944Z" fill="url(#paint0_radial_2032_1983)"/>
<path d="M5.19745 14.3944C6.74506 14.3944 7.99964 13.1398 7.99964 11.5922C7.99964 10.0446 6.74506 8.79004 5.19745 8.79004C3.64985 8.79004 2.39526 10.0446 2.39526 11.5922C2.39526 13.1398 3.64985 14.3944 5.19745 14.3944Z" fill="url(#paint1_radial_2032_1983)"/>
<path d="M12.0065 19.9995C16.4246 19.9995 20.0062 17.3132 20.0062 13.9995C20.0062 10.6858 16.4246 7.99951 12.0065 7.99951C7.58842 7.99951 4.00684 10.6858 4.00684 13.9995C4.00684 17.3132 7.58842 19.9995 12.0065 19.9995Z" fill="url(#paint2_radial_2032_1983)"/>
<path d="M9.64126 13.4165C9.59438 14.4327 8.91938 14.8021 8.13469 14.8021C7.35001 14.8021 6.75001 14.2818 6.79688 13.2655C6.84376 12.2493 7.51876 11.5762 8.30344 11.5762C9.08813 11.5762 9.68813 12.4002 9.64126 13.4165Z" fill="#842123"/>
<path d="M17.2162 13.2646C17.2631 14.2808 16.664 14.8011 15.8784 14.8011C15.0928 14.8011 14.4178 14.4327 14.3718 13.4155C14.325 12.3993 14.924 11.5752 15.7096 11.5752C16.4953 11.5752 17.1703 12.2474 17.2162 13.2646Z" fill="#842123"/>
<path d="M14.3718 13.5049C14.4159 14.4565 15.0468 14.8015 15.7818 14.8015C16.5168 14.8015 17.0774 14.2849 17.0334 13.3333C16.9893 12.3818 16.3584 11.7593 15.6234 11.7593C14.8884 11.7593 14.3278 12.5533 14.3718 13.5049Z" fill="url(#paint3_radial_2032_1983)"/>
<path d="M9.64214 13.5049C9.59808 14.4565 8.96714 14.8015 8.23214 14.8015C7.49714 14.8015 6.93652 14.2849 6.98058 13.3333C7.02464 12.3818 7.65558 11.7593 8.39058 11.7593C9.12558 11.7593 9.6862 12.5533 9.64214 13.5049Z" fill="url(#paint4_radial_2032_1983)"/>
<path d="M12.0066 15.48C11.0147 15.48 10.0641 15.5278 9.1847 15.615C9.0347 15.63 8.93908 15.7828 8.9972 15.9197C9.48939 17.0737 10.651 17.8847 12.0066 17.8847C13.3622 17.8847 14.5228 17.0737 15.016 15.9197C15.0741 15.7828 14.9794 15.63 14.8285 15.615C13.9491 15.5278 12.9985 15.48 12.0066 15.48Z" fill="#BBCFDA"/>
<path d="M12.0066 15.7002C11.0175 15.7002 10.0697 15.7489 9.19314 15.838C9.04314 15.853 8.94845 16.0086 9.00658 16.1474C9.49783 17.3202 10.6556 18.1433 12.0056 18.1433C13.3556 18.1433 14.5144 17.3193 15.0056 16.1474C15.0638 16.0086 14.9691 15.853 14.8191 15.838C13.9425 15.7489 12.9947 15.7002 12.0056 15.7002H12.0066Z" fill="white"/>
<path d="M12.0066 15.5859C11.0335 15.5859 10.1007 15.6338 9.23723 15.7209C9.09004 15.7359 8.99629 15.8888 9.05348 16.0256C9.53629 17.1797 10.6763 17.9906 12.0066 17.9906C13.3369 17.9906 14.476 17.1797 14.9597 16.0256C15.0169 15.8888 14.9232 15.7359 14.776 15.7209C13.9135 15.6338 12.9807 15.5859 12.0066 15.5859Z" fill="url(#paint5_radial_2032_1983)"/>
<path d="M16.3885 7.18414C17.4851 7.18414 18.3741 6.29515 18.3741 5.19852C18.3741 4.10189 17.4851 3.21289 16.3885 3.21289C15.2918 3.21289 14.4028 4.10189 14.4028 5.19852C14.4028 6.29515 15.2918 7.18414 16.3885 7.18414Z" fill="url(#paint6_radial_2032_1983)"/>
<path d="M11.9784 8.25299C11.7403 8.25299 11.5481 8.15361 11.5481 7.99986C11.5481 6.22049 12.9956 4.77393 14.774 4.77393C15.0122 4.77393 15.2043 4.96705 15.2043 5.20424C15.2043 5.44143 15.0112 5.63455 14.774 5.63455C13.47 5.63455 12.4087 6.6958 12.4087 7.99986C12.4087 8.15361 12.2156 8.25299 11.9784 8.25299Z" fill="url(#paint7_radial_2032_1983)"/>
<path d="M9.119 13.9752C9.119 14.3436 8.72713 14.5086 8.24432 14.5086C7.7615 14.5086 7.36963 14.3436 7.36963 13.9752C7.36963 13.6067 7.7615 13.3086 8.24432 13.3086C8.72713 13.3086 9.119 13.6067 9.119 13.9752Z" fill="#FF6101"/>
<path d="M16.6444 13.9752C16.6444 14.3436 16.2525 14.5086 15.7697 14.5086C15.2869 14.5086 14.895 14.3436 14.895 13.9752C14.895 13.6067 15.2869 13.3086 15.7697 13.3086C16.2525 13.3086 16.6444 13.6067 16.6444 13.9752Z" fill="#FF6101"/>
<path d="M8.84812 12.9761C9.02001 12.9761 9.15937 12.8242 9.15937 12.6367C9.15937 12.4493 9.02001 12.2974 8.84812 12.2974C8.67622 12.2974 8.53687 12.4493 8.53687 12.6367C8.53687 12.8242 8.67622 12.9761 8.84812 12.9761Z" fill="#FFC49C"/>
<path d="M16.2459 12.9761C16.4178 12.9761 16.5572 12.8242 16.5572 12.6367C16.5572 12.4493 16.4178 12.2974 16.2459 12.2974C16.074 12.2974 15.9347 12.4493 15.9347 12.6367C15.9347 12.8242 16.074 12.9761 16.2459 12.9761Z" fill="#FFC49C"/>
</g>
<defs>
<radialGradient id="paint0_radial_2032_1983" cx="0" cy="0" r="1" gradientUnits="userSpaceOnUse" gradientTransform="translate(18.8448 10.0836) scale(5.61577 4.89886)">
<stop stop-color="#FEFFFF"/>
<stop offset="0.4" stop-color="#FEFFFF"/>
<stop offset="0.51" stop-color="#F9FCFC"/>
<stop offset="0.62" stop-color="#EDF3F5"/>
<stop offset="0.7" stop-color="#DEE9EC"/>
<stop offset="0.72" stop-color="#D8E4E8"/>
<stop offset="0.76" stop-color="#CCD8DF"/>
<stop offset="0.8" stop-color="#C8D5DD"/>
<stop offset="0.83" stop-color="#CCD6DE"/>
<stop offset="0.85" stop-color="#D8DBE2"/>
<stop offset="0.88" stop-color="#EDE3E9"/>
<stop offset="0.9" stop-color="#FFEBEF"/>
</radialGradient>
<radialGradient id="paint1_radial_2032_1983" cx="0" cy="0" r="1" gradientUnits="userSpaceOnUse" gradientTransform="translate(5.23981 10.0836) scale(5.61577 4.89886)">
<stop stop-color="#FEFFFF"/>
<stop offset="0.4" stop-color="#FEFFFF"/>
<stop offset="0.51" stop-color="#F9FCFC"/>
<stop offset="0.62" stop-color="#EDF3F5"/>
<stop offset="0.7" stop-color="#DEE9EC"/>
<stop offset="0.72" stop-color="#D8E4E8"/>
<stop offset="0.76" stop-color="#CCD8DF"/>
<stop offset="0.8" stop-color="#C8D5DD"/>
<stop offset="0.83" stop-color="#CCD6DE"/>
<stop offset="0.85" stop-color="#D8DBE2"/>
<stop offset="0.88" stop-color="#EDE3E9"/>
<stop offset="0.9" stop-color="#FFEBEF"/>
</radialGradient>
<radialGradient id="paint2_radial_2032_1983" cx="0" cy="0" r="1" gradientUnits="userSpaceOnUse" gradientTransform="translate(12.22 9.29756) scale(16.9394 11.8936)">
<stop stop-color="#FEFFFF"/>
<stop offset="0.4" stop-color="#FEFFFF"/>
<stop offset="0.51" stop-color="#F9FCFC"/>
<stop offset="0.62" stop-color="#EDF3F5"/>
<stop offset="0.7" stop-color="#DEE9EC"/>
<stop offset="0.72" stop-color="#D8E4E8"/>
<stop offset="0.76" stop-color="#CCD8DF"/>
<stop offset="0.8" stop-color="#C8D5DD"/>
<stop offset="0.83" stop-color="#CCD6DE"/>
<stop offset="0.85" stop-color="#D8DBE2"/>
<stop offset="0.88" stop-color="#EDE3E9"/>
<stop offset="0.9" stop-color="#FFEBEF"/>
</radialGradient>
<radialGradient id="paint3_radial_2032_1983" cx="0" cy="0" r="1" gradientUnits="userSpaceOnUse" gradientTransform="translate(15.4949 14.1538) rotate(180) scale(1.41529 2.07776)">
<stop stop-color="#FF6600"/>
<stop offset="0.5" stop-color="#FF4500"/>
<stop offset="0.7" stop-color="#FC4301"/>
<stop offset="0.82" stop-color="#F43F07"/>
<stop offset="0.92" stop-color="#E53812"/>
<stop offset="1" stop-color="#D4301F"/>
</radialGradient>
<radialGradient id="paint4_radial_2032_1983" cx="0" cy="0" r="1" gradientUnits="userSpaceOnUse" gradientTransform="translate(8.45531 14.1538) scale(1.41529 2.07776)">
<stop stop-color="#FF6600"/>
<stop offset="0.5" stop-color="#FF4500"/>
<stop offset="0.7" stop-color="#FC4301"/>
<stop offset="0.82" stop-color="#F43F07"/>
<stop offset="0.92" stop-color="#E53812"/>
<stop offset="1" stop-color="#D4301F"/>
</radialGradient>
<radialGradient id="paint5_radial_2032_1983" cx="0" cy="0" r="1" gradientUnits="userSpaceOnUse" gradientTransform="translate(12.0346 18.2726) scale(4.99052 3.29162)">
<stop stop-color="#172E35"/>
<stop offset="0.29" stop-color="#0E1C21"/>
<stop offset="0.73" stop-color="#030708"/>
<stop offset="1"/>
</radialGradient>
<radialGradient id="paint6_radial_2032_1983" cx="0" cy="0" r="1" gradientUnits="userSpaceOnUse" gradientTransform="translate(16.4355 3.19752) scale(4.38069)">
<stop stop-color="#FEFFFF"/>
<stop offset="0.4" stop-color="#FEFFFF"/>
<stop offset="0.51" stop-color="#F9FCFC"/>
<stop offset="0.62" stop-color="#EDF3F5"/>
<stop offset="0.7" stop-color="#DEE9EC"/>
<stop offset="0.72" stop-color="#D8E4E8"/>
<stop offset="0.76" stop-color="#CCD8DF"/>
<stop offset="0.8" stop-color="#C8D5DD"/>
<stop offset="0.83" stop-color="#CCD6DE"/>
<stop offset="0.85" stop-color="#D8DBE2"/>
<stop offset="0.88" stop-color="#EDE3E9"/>
<stop offset="0.9" stop-color="#FFEBEF"/>
</radialGradient>
<radialGradient id="paint7_radial_2032_1983" cx="0" cy="0" r="1" gradientUnits="userSpaceOnUse" gradientTransform="translate(14.61 7.97323) scale(3.59065)">
<stop offset="0.48" stop-color="#7A9299"/>
<stop offset="0.67" stop-color="#172E35"/>
<stop offset="0.75"/>
<stop offset="0.82" stop-color="#172E35"/>
</radialGradient>
<clipPath id="clip0_2032_1983">
<rect width="24" height="24" fill="white"/>
</clipPath>
</defs>
</svg>
