<svg width="40" height="40" viewBox="0 0 40 40" fill="none" xmlns="http://www.w3.org/2000/svg">
<rect x="0.5" y="0.5" width="39" height="39" rx="19.5" fill="white"/>
<rect x="0.5" y="0.5" width="39" height="39" rx="19.5" stroke="#1574D2"/>
<path d="M25.1765 16.6635C26.7198 17.7706 28.6105 18.4221 30.6525 18.4221V14.4786C30.2661 14.4787 29.8806 14.4383 29.5025 14.3579V17.4619C27.4606 17.4619 25.5702 16.8105 24.0265 15.7034V23.7509C24.0265 27.7766 20.7745 31.0399 16.7633 31.0399C15.2667 31.0399 13.8756 30.5858 12.72 29.807C14.0389 31.1604 15.8782 32 17.9131 32C21.9245 32 25.1766 28.7367 25.1766 24.7108V16.6635H25.1765V16.6635ZM26.5951 12.685C25.8064 11.8202 25.2885 10.7027 25.1765 9.46717V8.95996H24.0867C24.361 10.5303 25.2966 11.8719 26.5951 12.685ZM15.2571 26.7178C14.8164 26.1379 14.5782 25.4286 14.5793 24.6992C14.5793 22.858 16.0667 21.3651 17.9018 21.3651C18.2438 21.365 18.5837 21.4176 18.9096 21.5214V17.4898C18.5287 17.4374 18.1443 17.4151 17.7601 17.4233V20.5613C17.4339 20.4575 17.0938 20.4048 16.7518 20.4051C14.9167 20.4051 13.4294 21.8979 13.4294 23.7393C13.4294 25.0414 14.1728 26.1687 15.2571 26.7178Z" fill="#FF004F"/>
<path d="M24.0265 15.7033C25.5702 16.8104 27.4607 17.4618 29.5025 17.4618V14.3578C28.3628 14.1141 27.3538 13.5164 26.5951 12.685C25.2966 11.8718 24.361 10.5302 24.0867 8.95996H21.2241V24.7106C21.2176 26.5468 19.7327 28.0336 17.9016 28.0336C16.8226 28.0336 15.8639 27.5174 15.2568 26.7178C14.1727 26.1687 13.4292 25.0413 13.4292 23.7394C13.4292 21.8981 14.9166 20.4052 16.7516 20.4052C17.1032 20.4052 17.4421 20.4602 17.76 20.5614V17.4234C13.8192 17.5051 10.6499 20.7365 10.6499 24.7107C10.6499 26.6946 11.4391 28.4931 12.7201 29.8071C13.8756 30.5858 15.2667 31.04 16.7634 31.04C20.7747 31.04 24.0265 27.7765 24.0265 23.7509V15.7033H24.0265Z" fill="black"/>
<path d="M29.5025 14.3578V13.5185C28.4748 13.52 27.4672 13.2312 26.5952 12.6849C27.3671 13.5331 28.3835 14.1179 29.5025 14.3578ZM24.0867 8.95998C24.0605 8.80991 24.0404 8.65885 24.0265 8.50721V8H20.074V23.7508C20.0677 25.5868 18.5829 27.0736 16.7516 27.0736C16.214 27.0736 15.7064 26.9455 15.2568 26.7179C15.864 27.5174 16.8226 28.0336 17.9016 28.0336C19.7326 28.0336 21.2177 26.5469 21.2241 24.7107V8.95998H24.0867ZM17.7601 17.4234V16.5299C17.4299 16.4846 17.0969 16.4619 16.7635 16.462C12.7519 16.4619 9.5 19.7254 9.5 23.7508C9.5 26.2745 10.7781 28.4987 12.7202 29.807C11.4392 28.493 10.65 26.6944 10.65 24.7106C10.65 20.7365 13.8192 17.5051 17.7601 17.4234Z" fill="#00F2EA"/>
</svg>
