<svg width="17" height="19" viewBox="0 0 17 19" fill="none" xmlns="http://www.w3.org/2000/svg">
<path d="M7.37431 2.89006C7.93041 2.27949 8.89105 2.27949 9.44714 2.89006L10.1622 3.67522C10.4432 3.9838 10.8471 4.15111 11.2641 4.13162L12.3249 4.08205C13.1498 4.04349 13.8291 4.72282 13.7906 5.54775L13.741 6.60857C13.7215 7.02548 13.8888 7.42939 14.1974 7.71042L14.9825 8.42546C15.5932 8.98155 15.5932 9.9422 14.9825 10.4983L14.1974 11.2133C13.8888 11.4943 13.7215 11.8983 13.741 12.3152L13.7906 13.376C13.8291 14.2009 13.1498 14.8803 12.3249 14.8417L11.2641 14.7921C10.8471 14.7726 10.4432 14.9399 10.1622 15.2485L9.44714 16.0337C8.89105 16.6443 7.93041 16.6443 7.37431 16.0337L6.65927 15.2485C6.37824 14.9399 5.97433 14.7726 5.55742 14.7921L4.4966 14.8417C3.67167 14.8803 2.99234 14.2009 3.0309 13.376L3.08048 12.3152C3.09996 11.8983 2.93266 11.4943 2.62407 11.2133L1.83891 10.4983C1.22834 9.9422 1.22834 8.98155 1.83891 8.42546L2.62407 7.71042C2.93266 7.42939 3.09996 7.02548 3.08048 6.60857L3.0309 5.54775C2.99234 4.72282 3.67167 4.04349 4.49661 4.08205L5.55742 4.13162C5.97433 4.15111 6.37824 3.9838 6.65927 3.67522L7.37431 2.89006Z" fill="#1574D2" stroke="#1574D2" stroke-width="1.12143"/>
<path d="M6.30811 9.46234L7.7099 10.8641L10.5135 8.06055" stroke="white" stroke-width="1.12143" stroke-linecap="round" stroke-linejoin="round"/>
</svg>
