<svg width="59" height="59" viewBox="0 0 59 59" fill="none" xmlns="http://www.w3.org/2000/svg">
<rect x="0.5" y="0.5" width="58" height="58" rx="29" fill="white"/>
<rect x="0.5" y="0.5" width="58" height="58" rx="29" stroke="#1A1A1A"/>
<path d="M13.9944 44.9514L21.7161 23.3307L35.6151 37.2297L13.9944 44.9514ZM19.0907 39.8551L29.9783 35.9942L22.9515 28.9675L19.0907 39.8551ZM33.3758 30.3574L31.7543 28.7359L40.4026 20.0876C41.2262 19.2639 42.2172 18.8521 43.3754 18.8521C44.5337 18.8521 45.5246 19.2639 46.3483 20.0876L47.2749 21.0142L45.6533 22.6357L44.7267 21.7091C44.3664 21.3488 43.9159 21.1686 43.3754 21.1686C42.8349 21.1686 42.3845 21.3488 42.0241 21.7091L33.3758 30.3574ZM27.1985 24.1801L25.5769 22.5585L26.5035 21.6319C26.8639 21.2716 27.044 20.834 27.044 20.3192C27.044 19.8044 26.8639 19.3669 26.5035 19.0065L25.4997 18.0027L27.1213 16.3812L28.1251 17.385C28.9487 18.2086 29.3605 19.1867 29.3605 20.3192C29.3605 21.4517 28.9487 22.4298 28.1251 23.2535L27.1985 24.1801ZM30.2871 27.2687L28.6656 25.6472L34.2252 20.0876C34.5856 19.7272 34.7657 19.2768 34.7657 18.7363C34.7657 18.1958 34.5856 17.7453 34.2252 17.385L31.7543 14.914L33.3758 13.2925L35.8468 15.7634C36.6704 16.5871 37.0822 17.578 37.0822 18.7363C37.0822 19.8945 36.6704 20.8855 35.8468 21.7091L30.2871 27.2687ZM36.4645 33.4461L34.8429 31.8245L37.3139 29.3536C38.1375 28.5299 39.1285 28.1181 40.2867 28.1181C41.445 28.1181 42.4359 28.5299 43.2596 29.3536L45.7305 31.8245L44.109 33.4461L41.638 30.9751C41.2777 30.6148 40.8273 30.4346 40.2867 30.4346C39.7462 30.4346 39.2958 30.6148 38.9354 30.9751L36.4645 33.4461Z" fill="#1C1B1F"/>
</svg>
