<svg width="18" height="20" viewBox="0 0 18 20" fill="none" xmlns="http://www.w3.org/2000/svg">
<g clip-path="url(#clip0_2003_321)">
<path d="M7.48424 2.93351C8.04862 2.31383 9.0236 2.31383 9.58799 2.93351L10.3137 3.73039C10.5989 4.04357 11.0088 4.21337 11.432 4.1936L12.5087 4.14328C13.3458 4.10415 14.0354 4.79362 13.9962 5.63086L13.9459 6.70749C13.9261 7.13063 14.0959 7.54057 14.4091 7.82578L15.206 8.5515C15.8257 9.11588 15.8257 10.0909 15.206 10.6552L14.4091 11.381C14.0959 11.6662 13.9261 12.0761 13.9459 12.4993L13.9962 13.5759C14.0354 14.4131 13.3458 15.1026 12.5087 15.0635L11.432 15.0131C11.0088 14.9934 10.5989 15.1632 10.3137 15.4764L9.58799 16.2732C9.0236 16.893 8.04862 16.893 7.48424 16.2732L6.75852 15.4764C6.4733 15.1632 6.06337 14.9934 5.64023 15.0131L4.56359 15.0635C3.72636 15.1026 3.03689 14.4131 3.07602 13.5759L3.12634 12.4993C3.14611 12.0761 2.97631 11.6662 2.66313 11.381L1.86625 10.6552C1.24657 10.0909 1.24657 9.11588 1.86625 8.5515L2.66313 7.82578C2.97631 7.54057 3.14611 7.13063 3.12634 6.70749L3.07602 5.63085C3.03689 4.79362 3.72636 4.10415 4.5636 4.14328L5.64023 4.1936C6.06337 4.21337 6.4733 4.04357 6.75852 3.73039L7.48424 2.93351Z" fill="#EDEDED" stroke="#1A1A1A" stroke-width="1.13816"/>
<path d="M6.4021 9.60361L7.8248 11.0263L10.6702 8.18091" stroke="#1A1A1A" stroke-width="1.13816" stroke-linecap="round" stroke-linejoin="round"/>
</g>
<defs>
<clipPath id="clip0_2003_321">
<rect width="17.0724" height="17.0724" fill="white" transform="translate(0 1.06714)"/>
</clipPath>
</defs>
</svg>
